<svg xmlns="http://www.w3.org/2000/svg" version="1.1" xmlns:xlink="http://www.w3.org/1999/xlink" xmlns:svgjs="http://svgjs.dev/svgjs" width="100%" height="100%" viewBox="0 0 1000 600"><rect width="1000" height="600" x="0" y="0" fill="#48a9a6"/><g><rect width="333.3333333333333" height="333.3333333333333" rx="13.333333333333334" ry="13.333333333333334" y="167.93244905911757" fill="#4357ad" transform="matrix(0.8578668019370699,0,0,0.8578668019370699,0,12.958489050128549)" x="145.7102355957031"/><path d="M277.17281913147394 345.31340966145507L277.17281913147394 388.1705540014735Q277.17281913147394 397.05660873070343 270.88030190694747 403.30660894695615Q264.63030169069475 409.5991261714826 255.74424696146477 409.5991261714826L255.74424696146477 409.5991261714826L170.0299582814279 409.5991261714826L170.0299582814279 388.1705540014735L252.68302236574917 388.1705540014735L252.68302236574917 345.31340966145507L191.4585304514371 345.31340966145507Q182.5724757222071 345.31340966145507 176.3224755059544 339.0208924369285Q170.0299582814279 332.77089222067576 170.0299582814279 323.8848374914458L170.0299582814279 323.8848374914458L170.0299582814279 281.02769315142734Q170.0299582814279 272.1416384221974 176.3224755059544 265.8916382059447Q182.5724757222071 259.5991209814182 191.4585304514371 259.5991209814182L191.4585304514371 259.5991209814182L277.17281913147394 259.5991209814182L277.17281913147394 281.02769315142734L194.5197550471527 281.02769315142734L194.5197550471527 323.8848374914458L255.74424696146477 323.8848374914458Q264.63030169069475 323.8848374914458 270.88030190694747 330.1773547159723Q277.17281913147394 336.427354932225 277.17281913147394 345.31340966145507L277.17281913147394 345.31340966145507ZM454.7238456829789 281.02769315142734L454.7238456829789 388.1705540014735Q454.7238456829789 396.75898967278664 448.3037774336309 403.17905792213463Q441.8837091842829 409.5991261714826 433.29527351296963 409.5991261714826L433.29527351296963 409.5991261714826L326.15241266292355 409.5991261714826L326.15241266292355 302.4562653214366L347.5809848329328 281.02769315142734L326.15241266292355 281.02769315142734L326.15241266292355 259.5991209814182L433.29527351296963 259.5991209814182Q441.8837091842829 259.5991209814182 448.3037774336309 266.0191892307662Q454.7238456829789 272.4392574801142 454.7238456829789 281.02769315142734L454.7238456829789 281.02769315142734ZM369.0095570029421 388.1705540014735L430.234048917254 388.1705540014735L430.234048917254 281.02769315142734L350.64220942864847 281.02769315142734L350.64220942864847 406.5379015757671L369.0095570029421 388.1705540014735Z " fill="#e4dfda" transform="matrix(0.8578668019370699,0,0,0.8578668019370699,0,12.958489050128549)"/><path d="M628.8325964908964 316.5611498121446L628.8325964908964 369.72570934134336L615.5414566085968 369.72570934134336L615.5414566085968 314.66241554324466L575.6680369616978 314.66241554324466L575.6680369616978 369.72570934134336L562.376897079398 369.72570934134336L562.376897079398 272.8902616274456L575.6680369616978 259.5991217451459L575.6680369616978 312.7636812743447L585.1617083061975 303.27000992984495L615.5414566085968 303.27000992984495Q621.0530602502647 303.27000992984495 624.9296427159355 307.17296370480597Q628.8325964908964 311.0495461704767 628.8325964908964 316.5611498121446L628.8325964908964 316.5611498121446ZM721.8705756669943 358.3333037279436L721.8705756669943 369.72570934134336L668.7060161377955 369.72570934134336Q663.1944124961277 369.72570934134336 659.3178300304568 365.82275556638234Q655.4148762554959 361.9461731007115 655.4148762554959 356.43456945904364L655.4148762554959 356.43456945904364L655.4148762554959 316.5611498121446Q655.4148762554959 311.0495461704767 659.3178300304568 307.17296370480597Q663.1944124961277 303.27000992984495 668.7060161377955 303.27000992984495L668.7060161377955 303.27000992984495L708.5794357846945 303.27000992984495Q714.0910394263625 303.27000992984495 717.9676218920332 307.17296370480597Q721.8705756669943 311.0495461704767 721.8705756669943 316.5611498121446L721.8705756669943 316.5611498121446L721.8705756669943 329.8522896944443L708.5794357846945 343.1434295767439L670.6047504066954 343.1434295767439L681.9971560200953 331.75102396334427L708.5794357846945 331.75102396334427L708.5794357846945 314.66241554324466L668.7060161377955 314.66241554324466L668.7060161377955 358.3333037279436L721.8705756669943 358.3333037279436ZM757.9465267760935 259.5991217451459L757.9465267760935 369.72570934134336L744.6553868937937 369.72570934134336L744.6553868937937 272.8902616274456L757.9465267760935 259.5991217451459ZM852.8832402210911 316.5611498121446L852.8832402210911 356.43456945904364Q852.8832402210911 361.9461731007115 848.9802864461302 365.82275556638234Q845.1037039804595 369.72570934134336 839.5921003387915 369.72570934134336L839.5921003387915 369.72570934134336L799.7186806918925 369.72570934134336L799.7186806918925 409.5991289882424L786.4275408095926 409.5991289882424L786.4275408095926 303.27000992984495L799.7186806918925 303.27000992984495L799.7186806918925 312.7636812743447L809.2123520363922 303.27000992984495L839.5921003387915 303.27000992984495Q845.1037039804595 303.27000992984495 848.9802864461302 307.17296370480597Q852.8832402210911 311.0495461704767 852.8832402210911 316.5611498121446L852.8832402210911 316.5611498121446ZM809.2123520363922 358.3333037279436L839.5921003387915 358.3333037279436L839.5921003387915 314.66241554324466L799.7186806918925 314.66241554324466L799.7186806918925 367.8269750724434L809.2123520363922 358.3333037279436ZM945.921219397189 358.3333037279436L945.921219397189 369.72570934134336L892.7566598679902 369.72570934134336Q887.2450562263222 369.72570934134336 883.3684737606515 365.82275556638234Q879.4655199856905 361.9461731007115 879.4655199856905 356.43456945904364L879.4655199856905 356.43456945904364L879.4655199856905 316.5611498121446Q879.4655199856905 311.0495461704767 883.3684737606515 307.17296370480597Q887.2450562263222 303.27000992984495 892.7566598679902 303.27000992984495L892.7566598679902 303.27000992984495L932.6300795148892 303.27000992984495Q938.1416831565572 303.27000992984495 942.0182656222279 307.17296370480597Q945.921219397189 311.0495461704767 945.921219397189 316.5611498121446L945.921219397189 316.5611498121446L945.921219397189 329.8522896944443L932.6300795148892 343.1434295767439L894.6553941368901 343.1434295767439L906.04779975029 331.75102396334427L932.6300795148892 331.75102396334427L932.6300795148892 314.66241554324466L892.7566598679902 314.66241554324466L892.7566598679902 358.3333037279436L945.921219397189 358.3333037279436ZM1019.9718558842873 316.5611498121446L1019.9718558842873 329.8522896944443L1006.6807160019874 329.8522896944443L1006.6807160019874 314.66241554324466L980.098436237388 314.66241554324466L980.098436237388 369.72570934134336L966.8072963550884 369.72570934134336L966.8072963550884 303.27000992984495L980.098436237388 303.27000992984495L980.098436237388 312.7636812743447L989.592107581888 303.27000992984495L1006.6807160019874 303.27000992984495Q1012.1923196436554 303.27000992984495 1016.0689021093261 307.17296370480597Q1019.9718558842873 311.0495461704767 1019.9718558842873 316.5611498121446L1019.9718558842873 316.5611498121446Z " fill="#e4dfda" transform="matrix(0.8578668019370699,0,0,0.8578668019370699,0,12.958489050128549)"/></g></svg>